<svg xmlns="http://www.w3.org/2000/svg" width="1660.754" height="1319.194" viewBox="0 0 1660.754 1319.194"><g transform="translate(-661 -177.756)"><circle cx="357.64" cy="357.64" r="357.64" transform="translate(1145.179 477.917)" fill="#2563eb" opacity="0.598"/><circle cx="70.088" cy="70.088" r="70.088" transform="translate(1226.617 208.23)" fill="#2563eb" opacity="0.598"/><circle cx="70.088" cy="70.088" r="70.088" transform="translate(2040.25 177.756)" fill="#2563eb" opacity="0.598"/><circle cx="70.088" cy="70.088" r="70.088" transform="translate(2003.683 1017.292)" fill="#2563eb" opacity="0.598"/><ellipse cx="241.519" cy="76.28" rx="241.519" ry="76.28" transform="translate(1334.529 1335.984) rotate(1)" fill="#2563eb" opacity="0.598"/><circle cx="46.472" cy="46.472" r="46.472" transform="translate(1814.749 410.876)" fill="#2563eb" opacity="0.598"/><circle cx="46.472" cy="46.472" r="46.472" transform="matrix(0.719, 0.695, -0.695, 0.719, 2176.472, 649.562)" fill="#2563eb" opacity="0.598"/><circle cx="31.997" cy="31.997" r="31.997" transform="translate(1957.973 776.554)" fill="#2563eb" opacity="0.598"/><circle cx="31.997" cy="31.997" r="31.997" transform="translate(1762.945 214.324)" fill="#2563eb" opacity="0.598"/><circle cx="31.997" cy="31.997" r="31.997" transform="matrix(0.719, 0.695, -0.695, 0.719, 2275.743, 472.188)" fill="#2563eb" opacity="0.598"/><circle cx="19.808" cy="19.808" r="19.808" transform="translate(2034.156 586.097)" fill="#2563eb" opacity="0.598"/><circle cx="19.808" cy="19.808" r="19.808" transform="translate(1580.106 278.318)" fill="#2563eb" opacity="0.598"/><circle cx="19.808" cy="19.808" r="19.808" transform="matrix(0.719, 0.695, -0.695, 0.719, 2099.766, 391.21)" fill="#2563eb" opacity="0.598"/><ellipse cx="19.808" cy="20.569" rx="19.808" ry="20.569" transform="translate(1794.941 1102.617)" fill="#2563eb" opacity="0.598"/><g transform="translate(661 348.726)"><path d="M307.671,382.436a9.221,9.221,0,0,0-6.386,11.352L455.257,943.672a9.221,9.221,0,0,0,11.352,6.385l567.619-158.938a9.221,9.221,0,0,0,6.385-11.352L886.643,229.883A9.221,9.221,0,0,0,875.29,223.5Z" transform="translate(-300.944 -134.962)" fill="#e6e6e6"/><path d="M460.544,910.892,1001.45,759.434,854.957,236.264l-540.9,151.458Z" transform="translate(-287.745 -121.763)" fill="#fff"/><path d="M351.725,381.267c-3.609,1.01-5.1,7.005-3.317,13.362s6.165,10.708,9.773,9.7l246.7-69.078c3.609-1.01,5.1-7.005,3.317-13.362s-6.165-10.708-9.774-9.7Z" transform="translate(-253.904 -45.45)" fill="#e6e6e6"/><path d="M361.624,416.619c-3.609,1.01-5.1,7.005-3.317,13.362s6.165,10.708,9.773,9.7L614.78,370.6c3.609-1.01,5.1-7.005,3.317-13.362s-6.165-10.708-9.773-9.7Z" transform="translate(-243.935 -9.849)" fill="#e6e6e6"/><path d="M371.409,451.563c-3.609,1.01-5.1,7.005-3.317,13.362s6.165,10.707,9.773,9.7l246.7-69.078c3.609-1.01,5.1-7.005,3.317-13.362s-6.165-10.708-9.774-9.7Z" transform="translate(-234.082 25.341)" fill="#e6e6e6"/><path d="M381.308,486.915c-3.609,1.01-5.1,7.005-3.317,13.362s6.165,10.708,9.773,9.7l246.7-69.078c3.609-1.01,5.1-7.005,3.317-13.362s-6.165-10.707-9.774-9.7Z" transform="translate(-224.113 60.941)" fill="#e6e6e6"/><path d="M539.369,301.761a11.973,11.973,0,0,0,6.457,23.059l46.119-12.914a11.973,11.973,0,1,0-6.457-23.059Z" transform="translate(-69.652 -69.259)" fill="#e6e6e6"/><path d="M549.076,336.427a11.973,11.973,0,0,0,6.457,23.06l46.119-12.914a11.973,11.973,0,1,0-6.457-23.06Z" transform="translate(-59.877 -34.349)" fill="#e6e6e6"/><path d="M558.783,371.094a11.973,11.973,0,1,0,6.457,23.06l46.119-12.914a11.973,11.973,0,1,0-6.457-23.06Z" transform="translate(-50.101 0.562)" fill="#e6e6e6"/><path d="M568.49,405.761a11.973,11.973,0,0,0,6.457,23.059l46.119-12.914a11.973,11.973,0,0,0-6.457-23.06Z" transform="translate(-40.326 35.472)" fill="#e6e6e6"/><path d="M578.968,467.688a15.257,15.257,0,0,0,8.228,29.383l58.765-16.455a15.257,15.257,0,1,0-8.227-29.383h0Z" transform="translate(-32.19 94.146)" fill="#2563eb"/><rect width="451.583" height="4.014" transform="matrix(0.963, -0.27, 0.27, 0.963, 172.4, 624.253)" fill="#e6e6e6"/><path d="M562.346,573.568,527.47,582,478.352,451.491l51.474-12.444Z" transform="translate(481.717 448.616)" fill="#a0616a"/><path d="M774.534,753.317l-.236-.975a44.623,44.623,0,0,1,32.851-53.8l68.236-16.5,10.71,44.3Z" transform="translate(174.483 327.156)" fill="#2f2e41"/><path d="M469.844,587.352h-35.88l-17.07-138.4H469.85Z" transform="translate(419.827 458.592)" fill="#a0616a"/><path d="M806.139,740.323H691.364v-1a44.573,44.573,0,0,1,44.57-44.571h70.2Z" transform="translate(92.222 339.942)" fill="#2f2e41"/><path d="M735.3,895.15l-34.838-415.2L844.68,453.367l.569-.1L887.464,480.4,872.772,633.2l67.646,238.232L882.009,886.8,814.255,665.86,798.75,598.672l-7.95,87.307,5.9,215.31Z" transform="translate(101.388 96.766)" fill="#2f2e41"/><path d="M698.432,669.338l-.382-.483,49.836-375.23.065-.492.351-.352c.735-.735,18.2-17.989,36.155-17.989,2.6,0,5.065-.066,7.433-.126,13.743-.357,24.6-.643,37.5,12.261,13.146,13.144,56.036,61.144,56.036,126.883,0,63.63,5.794,261.371,5.853,263.361l.082,2.792-2.342-1.523c-.578-.372-58.266-37.1-106.647-2.958-15.119,10.672-28.7,14.413-40.316,14.413C715.027,689.9,698.663,669.632,698.432,669.338Z" transform="translate(98.955 -83.203)"/><circle cx="71.883" cy="71.883" r="71.883" transform="translate(778.225 68.959) rotate(-28.663)" fill="#a0616a"/><path d="M706.491,582.373a29.43,29.43,0,0,0,1.707-45.1l40.822-96.29-53.45,9.837L665,540.755a29.59,29.59,0,0,0,41.491,41.618Z" transform="translate(59.252 84.402)" fill="#a0616a"/><path d="M662.824,663.859l13.145-27.752a5.406,5.406,0,0,1-1.941-2.012c-12.281-21.284,61.9-198.039,66.847-209.762-.754-6.376-8.542-73.948-2.847-96.724,6.7-26.812,20.466-39.308,46.021-41.783,28.182-2.647,35.785,35.623,35.858,36.012l.026,98.385L787.588,533.475,713.826,683.949Z" transform="translate(63.481 -71.985)"/><path d="M786.294,300.6c-8.617,1.121-15.117-7.7-18.132-15.845s-5.312-17.638-12.8-22.04c-10.236-6.015-23.331,1.219-35.036-.765-13.218-2.241-21.812-16.25-22.486-29.64s4.655-26.268,9.883-38.614l1.825,15.343a30.426,30.426,0,0,1,13.3-26.594l-2.353,22.513c1.475-12.612,15.063-22.385,27.489-19.772l-.37,13.414c15.267-1.815,30.668-3.633,45.98-2.25s30.732,6.228,42.337,16.312c17.36,15.085,23.7,39.923,21.572,62.823S845.921,319.9,836.07,340.678c-2.479,5.229-5.907,11.129-11.655,11.8-5.164.6-9.89-3.719-11.5-8.664s-.822-10.317.14-15.427c1.452-7.719,3.283-15.608,1.918-23.342s-6.93-15.377-14.727-16.325-15.774,7.964-12.026,14.866Z" transform="translate(98.681 -175.962)" fill="#2f2e41"/></g></g></svg>